<?xml version="1.0" encoding="UTF-8" standalone="no"?>
<svg
   xmlns:dc="http://purl.org/dc/elements/1.1/"
   xmlns:cc="http://creativecommons.org/ns#"
   xmlns:rdf="http://www.w3.org/1999/02/22-rdf-syntax-ns#"
   xmlns:svg="http://www.w3.org/2000/svg"
   xmlns="http://www.w3.org/2000/svg"
   xmlns:sodipodi="http://sodipodi.sourceforge.net/DTD/sodipodi-0.dtd"
   xmlns:inkscape="http://www.inkscape.org/namespaces/inkscape"
   width="1920px"
   height="1920px"
   viewBox="0 0 1920 1920"
   version="1.1"
   id="SVGRoot"
   sodipodi:docname="floorplanone.svg"
   inkscape:version="1.0.2-2 (e86c870879, 2021-01-15)">
  <defs
     id="defs24" />
  <sodipodi:namedview
     id="base"
     pagecolor="#ffffff"
     bordercolor="#666666"
     borderopacity="1.0"
     inkscape:pageopacity="0.0"
     inkscape:pageshadow="2"
     inkscape:zoom="0.175"
     inkscape:cx="1051.772"
     inkscape:cy="916.23809"
     inkscape:document-units="px"
     inkscape:current-layer="layer1"
     inkscape:document-rotation="0"
     showgrid="false"
     inkscape:window-width="1267"
     inkscape:window-height="729"
     inkscape:window-x="83"
     inkscape:window-y="0"
     inkscape:window-maximized="0" />
  <metadata
     id="metadata27">
    <rdf:RDF>
      <cc:Work
         rdf:about="">
        <dc:format>image/svg+xml</dc:format>
        <dc:type
           rdf:resource="http://purl.org/dc/dcmitype/StillImage" />
        <dc:title></dc:title>
      </cc:Work>
    </rdf:RDF>
  </metadata>
  <g
     inkscape:label="Layer 1"
     inkscape:groupmode="layer"
     id="layer1">
    <g
       transform="matrix(0.3047619,0,0,-0.3047619,-15.23808,1830.0952)"
       fill="#000000"
       stroke="none"
       id="g24">
      <path
         d="M 50,3040 V 410 l 1410,2 1410,3 V 227 40 l 43,6 c 82,11 145,34 206,75 65,44 132,126 152,188 13,41 29,63 29,41 0,-29 49,-118 86,-160 74,-82 177,-134 280,-141 l 49,-4 3,183 2,182 H 5035 6350 V 3040 5670 H 3200 50 Z m 2330,2610 c 0,-7 -248,-10 -725,-10 -477,0 -725,3 -725,10 0,7 248,10 725,10 477,0 725,-3 725,-10 z m 3075,0 c 4,-7 -238,-10 -719,-10 -477,0 -726,3 -726,10 0,7 246,10 719,10 469,0 722,-3 726,-10 z M 960,5610 c 0,-11 -7,-20 -15,-20 -8,0 -15,9 -15,20 0,11 7,20 15,20 8,0 15,-9 15,-20 z m 1043,13 c -188,-2 -498,-2 -690,0 -191,1 -37,2 342,2 380,0 536,-1 348,-2 z m 377,-13 c 0,-11 -7,-20 -15,-20 -8,0 -15,9 -15,20 0,11 7,20 15,20 8,0 15,-9 15,-20 z m 1658,3 c -2,-10 -10,-18 -18,-18 -8,0 -16,8 -18,18 -2,12 3,17 18,17 15,0 20,-5 18,-17 z m 1045,10 c -188,-2 -498,-2 -690,0 -191,1 -37,2 342,2 380,0 536,-1 348,-2 z m 377,-13 c 0,-11 -7,-20 -15,-20 -8,0 -15,9 -15,20 0,11 7,20 15,20 8,0 15,-9 15,-20 z m -3120,-10 c 0,-7 -235,-10 -685,-10 -450,0 -685,3 -685,10 0,7 235,10 685,10 450,0 685,-3 685,-10 z m 3080,0 c 0,-7 -235,-10 -685,-10 -450,0 -685,3 -685,10 0,7 235,10 685,10 450,0 685,-3 685,-10 z m -3397,-27 c -199,-2 -527,-2 -730,0 -202,1 -39,2 362,2 402,0 567,-1 368,-2 z m 3075,0 c -203,-2 -533,-2 -735,0 -203,1 -37,2 367,2 404,0 570,-1 368,-2 z m 1128,-25 c 10,-10 17,-1432 9,-1840 l -7,-397 -129,-3 -129,-3 v 189 189 l -52,-7 c -71,-9 -167,-55 -222,-106 -52,-48 -111,-158 -121,-223 l -7,-42 H 4469 3370 v 164 164 l -48,-6 c -125,-15 -243,-95 -295,-201 -15,-30 -27,-61 -28,-68 0,-7 -9,11 -20,39 -45,117 -183,221 -299,226 l -55,2 -3,-156 -2,-156 -83,-6 c -45,-4 -595,-7 -1223,-7 H 173 l -6,302 c -9,387 -9,1259 0,1646 l 6,302 381,2 c 717,5 5666,1 5672,-4 z M 80,4425 c 0,-477 -3,-725 -10,-725 -7,0 -10,248 -10,725 0,477 3,725 10,725 7,0 10,-248 10,-725 z m 50,710 c 0,-8 -9,-15 -20,-15 -11,0 -20,7 -20,15 0,8 9,15 20,15 11,0 20,-7 20,-15 z m 17,-1072 c -1,-202 -2,-39 -2,362 0,402 1,567 2,368 2,-199 2,-527 0,-730 z m 6110,0 c -1,-202 -2,-39 -2,362 0,402 1,567 2,368 2,-199 2,-527 0,-730 z m 53,1072 c 0,-8 -9,-15 -20,-15 -11,0 -20,7 -20,15 0,8 9,15 20,15 11,0 20,-7 20,-15 z m 30,-710 c 0,-477 -3,-725 -10,-725 -7,0 -10,248 -10,725 0,477 3,725 10,725 7,0 10,-248 10,-725 z M 97,4083 c -1,-191 -2,-37 -2,342 0,380 1,536 2,348 2,-188 2,-498 0,-690 z m 33,342 c 0,-450 -3,-685 -10,-685 -7,0 -10,235 -10,685 0,450 3,685 10,685 7,0 10,-235 10,-685 z m 6160,0 c 0,-450 -3,-685 -10,-685 -7,0 -10,235 -10,685 0,450 3,685 10,685 7,0 10,-235 10,-685 z m 17,-342 c -1,-191 -2,-37 -2,342 0,380 1,536 2,348 2,-188 2,-498 0,-690 z M 130,3715 c 0,-8 -9,-15 -20,-15 -11,0 -20,7 -20,15 0,8 9,15 20,15 11,0 20,-7 20,-15 z m 6180,0 c 0,-8 -9,-15 -20,-15 -11,0 -20,7 -20,15 0,8 9,15 20,15 11,0 20,-7 20,-15 z m -372,-237 -3,-193 -179,-3 -179,-2 7,52 c 14,109 92,225 190,283 42,24 119,52 154,54 10,1 12,-41 10,-191 z m 19,-106 c -1,-53 -3,-7 -3,103 0,110 2,154 3,97 2,-57 2,-147 0,-200 z m -3307,83 c 0,-103 -4,-165 -10,-165 -6,0 -10,62 -10,165 0,103 4,165 10,165 6,0 10,-62 10,-165 z m 110,139 c 119,-38 230,-178 230,-291 v -23 h -165 -165 v 170 170 l 28,-6 c 15,-3 47,-12 72,-20 z m 575,-145 v -164 h -165 -165 l 2,39 c 6,92 85,201 183,251 49,25 116,45 135,41 6,-2 10,-66 10,-167 z m 22,-86 c -1,-49 -3,-9 -3,87 0,96 2,136 3,88 2,-49 2,-127 0,-175 z m -847,-108 v -35 l -1167,2 c -1117,3 -1168,4 -1171,21 -10,50 -77,47 1173,47 h 1165 z m 850,-4 c 0,-11 5,-23 10,-26 6,-4 10,-80 10,-196 v -189 h -385 -386 l 4,183 c 2,100 8,197 12,215 l 7,32 h 364 c 354,0 364,-1 364,-19 z m 2600,2 c 0,-10 7,-26 14,-35 11,-15 31,-18 133,-18 h 121 l 7,-607 c 7,-537 -1,-2052 -10,-2061 -8,-9 -1487,-14 -1797,-7 l -337,7 -3,84 -3,84 h 183 c 156,0 183,2 189,16 8,23 -23,141 -51,189 -57,96 -177,180 -274,192 l -47,5 3,759 2,759 h 550 550 v 290 290 h 181 c 192,0 209,4 209,49 0,21 4,21 190,21 174,0 190,-1 190,-17 z m 17,-5 c -3,-8 -6,-5 -6,6 -1,11 2,17 5,13 3,-3 4,-12 1,-19 z m -3465,-552 3,-514 -37,-6 c -111,-18 -214,-86 -276,-184 -30,-46 -62,-144 -62,-189 v -23 h 188 187 l -3,-337 c -2,-236 1,-339 8,-343 6,-4 -12,-10 -42,-13 -165,-20 -315,-175 -335,-349 l -6,-48 199,-1 c 109,0 193,-3 187,-6 -9,-3 -13,-29 -13,-78 v -73 l -457,-7 c -392,-7 -1870,-1 -1879,7 -9,9 -16,1505 -9,2041 l 7,637 h 1169 1169 z m 1066,507 -97,-4 -4,-127 -3,-127 -2,133 -2,132 103,-2 102,-2 z m 340,0 c -43,-2 -113,-2 -155,0 -43,1 -8,3 77,3 85,0 120,-2 78,-3 z m 175,0 c -18,-2 -48,-2 -65,0 -18,2 -4,4 32,4 36,0 50,-2 33,-4 z m 135,0 c -15,-2 -42,-2 -60,0 -18,2 -6,4 27,4 33,0 48,-2 33,-4 z m 130,0 c -15,-2 -42,-2 -60,0 -18,2 -6,4 27,4 33,0 48,-2 33,-4 z m 135,0 c -18,-2 -48,-2 -65,0 -18,2 -4,4 32,4 36,0 50,-2 33,-4 z m 130,0 c -18,-2 -48,-2 -65,0 -18,2 -4,4 32,4 36,0 50,-2 33,-4 z m 130,0 c -18,-2 -48,-2 -65,0 -18,2 -4,4 32,4 36,0 50,-2 33,-4 z m 130,0 c -18,-2 -48,-2 -65,0 -18,2 -4,4 32,4 36,0 50,-2 33,-4 z m 135,0 c -15,-2 -42,-2 -60,0 -18,2 -6,4 27,4 33,0 48,-2 33,-4 z m 130,0 c -15,-2 -42,-2 -60,0 -18,2 -6,4 27,4 33,0 48,-2 33,-4 z M 3750,3068 c 36,-66 67,-125 68,-129 2,-5 -17,-9 -42,-9 h -46 v -65 c 0,-36 -2,-65 -5,-65 -3,0 -56,31 -118,69 l -112,69 -3,126 -3,126 h 98 98 z m 240,-8 v -130 h -77 -78 l -67,124 c -38,68 -68,127 -68,130 0,3 65,6 145,6 h 145 z m 130,0 v -130 h -60 -60 v 130 130 h 60 60 z m 140,0 v -130 h -65 -65 v 130 130 h 65 65 z m 130,0 v -130 h -60 -60 v 130 130 h 60 60 z m 130,0 v -130 h -60 -60 v 130 130 h 60 60 z m 130,0 v -130 h -60 -60 v 130 130 h 60 60 z m 130,0 v -130 h -60 -60 v 130 130 h 60 60 z m 130,0 v -130 h -60 -60 v 130 130 h 60 60 z m 140,0 v -130 h -65 -65 v 130 130 h 65 65 z m 130,5 c 0,-69 -4,-125 -8,-125 -5,0 -17,7 -28,15 -10,8 -23,14 -29,14 -5,1 1,-8 15,-19 l 25,-20 h -47 -48 v 130 130 h 60 60 z M 3477,2708 c -1,-46 -3,-11 -3,77 0,88 2,125 3,83 2,-42 2,-114 0,-160 z m 241,80 c 7,-7 12,-37 12,-84 v -74 h -120 -120 v 150 150 l 108,-66 c 59,-37 113,-71 120,-76 z m 185,-1 c 38,-70 71,-126 74,-124 2,3 -26,58 -62,123 -36,66 -65,122 -65,127 0,4 32,7 70,7 h 70 v -129 c 0,-78 -4,-132 -10,-136 -6,-4 -61,24 -123,62 l -112,68 -3,68 -3,68 47,-3 48,-3 z m 217,-2 v -135 h -60 -60 v 135 135 h 60 60 z m 138,-2 3,-133 h -66 -65 v 128 c 0,71 3,132 7,136 4,4 32,6 63,4 l 55,-3 z m 130,0 3,-133 h -61 -60 v 135 136 l 58,-3 57,-3 z m 132,2 v -135 h -60 -60 v 135 135 h 60 60 z m 130,0 v -135 h -60 -60 v 135 135 h 60 60 z m 130,0 v -135 h -60 -60 v 135 135 h 60 60 z m 130,0 v -135 h -60 -60 v 135 135 h 60 60 z m 135,0 v -130 l -62,-3 -63,-3 v 129 c 0,71 3,132 7,136 4,4 32,6 63,4 l 55,-3 z m 90,109 -30,-26 38,22 37,22 v -131 -131 h -60 -60 v 135 135 h 53 52 z M 3853,2708 c 56,-34 106,-65 112,-70 5,-4 -44,-8 -108,-8 h -117 v 70 c 0,39 3,70 6,70 3,0 51,-28 107,-62 z m -475,-600 2,-628 h -385 -385 v 143 c 0,151 -4,167 -47,167 h -23 v 190 190 h 23 c 46,0 47,8 47,290 0,147 3,270 7,273 4,4 176,6 382,5 l 376,-3 z m 715,525 c -18,-2 -48,-2 -65,0 -18,2 -4,4 32,4 36,0 50,-2 33,-4 z m 134,0 c -20,-2 -52,-2 -70,0 -17,2 0,4 38,4 39,0 53,-2 32,-4 z m 136,0 c -18,-2 -48,-2 -65,0 -18,2 -4,4 32,4 36,0 50,-2 33,-4 z m 130,0 c -18,-2 -48,-2 -65,0 -18,2 -4,4 32,4 36,0 50,-2 33,-4 z m 130,0 c -18,-2 -48,-2 -65,0 -18,2 -4,4 32,4 36,0 50,-2 33,-4 z m 130,0 c -18,-2 -48,-2 -65,0 -18,2 -4,4 32,4 36,0 50,-2 33,-4 z m 130,0 c -18,-2 -48,-2 -65,0 -18,2 -4,4 32,4 36,0 50,-2 33,-4 z m 130,0 c -18,-2 -48,-2 -65,0 -18,2 -4,4 32,4 36,0 50,-2 33,-4 z m 140,0 c -18,-2 -48,-2 -65,0 -18,2 -4,4 32,4 36,0 50,-2 33,-4 z m -1676,-95 c -2,-18 -4,-6 -4,27 0,33 2,48 4,33 2,-15 2,-42 0,-60 z m 253,27 v -55 h -120 -120 v 55 55 h 120 120 z m 240,0 v -55 h -115 -115 v 55 55 h 115 115 z m 17,-27 c -2,-18 -4,-6 -4,27 0,33 2,48 4,33 2,-15 2,-42 0,-60 z M 6257,1513 c -1,-202 -2,-39 -2,362 0,402 1,567 2,368 2,-199 2,-527 0,-730 z m 53,1072 c 0,-8 -9,-15 -20,-15 -11,0 -20,7 -20,15 0,8 9,15 20,15 11,0 20,-7 20,-15 z m 30,-710 c 0,-477 -3,-725 -10,-725 -7,0 -10,248 -10,725 0,477 3,725 10,725 7,0 10,-248 10,-725 z M 80,1865 c 0,-477 -3,-725 -10,-725 -11,0 -15,1432 -3,1443 3,4 8,7 10,7 2,0 3,-326 3,-725 z m 50,710 c 0,-8 -9,-15 -20,-15 -11,0 -20,7 -20,15 0,8 9,15 20,15 11,0 20,-7 20,-15 z m 17,-1083 c -1,-202 -2,-36 -2,368 0,404 1,570 2,367 2,-202 2,-532 0,-735 z m 6143,383 c 0,-450 -3,-685 -10,-685 -7,0 -10,235 -10,685 0,450 3,685 10,685 7,0 10,-235 10,-685 z m 17,-342 c -1,-191 -2,-37 -2,342 0,380 1,536 2,348 2,-188 2,-498 0,-690 z M 97,1513 c -1,-192 -2,-35 -2,347 0,382 1,539 2,348 2,-192 2,-504 0,-695 z m 33,352 c 0,-450 -3,-685 -10,-685 -11,0 -15,1352 -3,1363 3,4 8,7 10,7 2,0 3,-308 3,-685 z m 3347,543 c -2,-18 -4,-4 -4,32 0,36 2,50 4,33 2,-18 2,-48 0,-65 z m 248,32 v -55 l -117,-3 -118,-3 v 61 61 l 118,-3 117,-3 z m 245,0 v -60 h -115 -115 v 60 60 h 115 115 z m 17,-22 c -2,-18 -4,-6 -4,27 0,33 2,48 4,33 2,-15 2,-42 0,-60 z m -510,-130 c -2,-18 -4,-6 -4,27 0,33 2,48 4,33 2,-15 2,-42 0,-60 z m 253,27 v -55 h -120 -120 v 55 55 h 120 120 z m 240,0 v -55 h -115 -115 v 55 55 h 115 115 z m 17,-27 c -2,-18 -4,-6 -4,27 0,33 2,48 4,33 2,-15 2,-42 0,-60 z m -510,-120 c -2,-18 -4,-6 -4,27 0,33 2,48 4,33 2,-15 2,-42 0,-60 z m 253,27 v -55 h -120 -120 v 55 55 h 120 120 z m 240,0 v -55 h -115 -115 v 55 55 h 115 115 z m 17,-27 c -2,-18 -4,-6 -4,27 0,33 2,48 4,33 2,-15 2,-42 0,-60 z M 2530,1990 v -180 h -190 -191 l 7,38 c 10,63 60,159 107,206 63,63 169,114 240,115 l 27,1 z m 947,48 c -2,-18 -4,-4 -4,32 0,36 2,50 4,33 2,-18 2,-48 0,-65 z m 248,32 v -55 l -117,-3 -118,-3 v 61 61 l 118,-3 117,-3 z m 245,0 v -60 h -115 -115 v 60 60 h 115 115 z m 17,-22 c -2,-18 -4,-6 -4,27 0,33 2,48 4,33 2,-15 2,-42 0,-60 z m -510,-130 c -2,-18 -4,-6 -4,27 0,33 2,48 4,33 2,-15 2,-42 0,-60 z m 253,27 v -55 h -120 -120 v 55 55 h 120 120 z m 240,0 v -55 h -115 -115 v 55 55 h 115 115 z m 17,-27 c -2,-18 -4,-6 -4,27 0,33 2,48 4,33 2,-15 2,-42 0,-60 z m -510,-120 c -2,-18 -4,-6 -4,27 0,33 2,48 4,33 2,-15 2,-42 0,-60 z m 253,27 v -55 h -120 -120 v 55 55 h 120 120 z m 240,0 v -55 h -115 -115 v 55 55 h 115 115 z m 17,-27 c -2,-18 -4,-6 -4,27 0,33 2,48 4,33 2,-15 2,-42 0,-60 z m -1549,-5 c -54,-2 -142,-2 -195,0 -54,1 -10,3 97,3 107,0 151,-2 98,-3 z m 139,-19 c -3,-3 -12,-4 -19,-1 -8,3 -5,6 6,6 11,1 17,-2 13,-5 z m 900,-106 c -2,-18 -4,-4 -4,32 0,36 2,50 4,33 2,-18 2,-48 0,-65 z m 248,32 v -55 l -117,-3 -118,-3 v 61 61 l 118,-3 117,-3 z m 245,0 v -60 h -115 -115 v 60 60 h 115 115 z m 17,-22 c -2,-18 -4,-6 -4,27 0,33 2,48 4,33 2,-15 2,-42 0,-60 z m -510,-130 c -2,-18 -4,-6 -4,27 0,33 2,48 4,33 2,-15 2,-42 0,-60 z m 253,27 v -55 h -120 -120 v 55 55 h 120 120 z m 240,0 v -55 h -115 -115 v 55 55 h 115 115 z m 17,-27 c -2,-18 -4,-6 -4,27 0,33 2,48 4,33 2,-15 2,-42 0,-60 z m -510,-120 c -2,-18 -4,-6 -4,27 0,33 2,48 4,33 2,-15 2,-42 0,-60 z m 253,27 v -55 h -120 -120 v 55 55 h 120 120 z m 240,0 v -55 h -115 -115 v 55 55 h 115 115 z m 17,-27 c -2,-18 -4,-6 -4,27 0,33 2,48 4,33 2,-15 2,-42 0,-60 z m -7,-179 c 0,-114 2,-134 18,-145 9,-7 25,-14 35,-14 16,0 17,-16 17,-190 V 710 h -23 c -38,0 -47,-19 -47,-102 v -78 h -130 -130 l -6,-40 -7,-40 h -413 -414 v 25 c 0,14 -4,25 -10,25 -5,0 -10,7 -10,15 0,12 -23,15 -122,17 l -123,3 -3,70 c -3,76 -13,95 -48,95 h -24 v 190 190 h 23 c 42,0 47,16 47,155 0,73 3,135 7,138 3,4 312,7 685,7 h 678 z m 2330,-84 c 0,-8 -9,-15 -20,-15 -11,0 -20,7 -20,15 0,8 9,15 20,15 11,0 20,-7 20,-15 z M 128,1148 c -7,-19 -38,-22 -38,-4 0,10 9,16 21,16 12,0 19,-5 17,-12 z m 2449,-54 c -3,-3 -12,-4 -19,-1 -8,3 -5,6 6,6 11,1 17,-2 13,-5 z m 1656,-42 c 37,-18 83,-52 107,-78 43,-47 94,-145 104,-201 l 6,-33 h -195 -195 v 176 176 l 54,-4 c 33,-3 80,-17 119,-36 z M 2530,900 V 720 h -191 -191 l 6,38 c 10,50 57,150 91,190 56,67 180,130 258,131 l 27,1 z M 4358,713 c -53,-2 -143,-2 -200,0 -57,1 -13,3 97,3 110,0 156,-2 103,-3 z M 2438,703 c -54,-2 -142,-2 -195,0 -54,1 -10,3 97,3 107,0 151,-2 98,-3 z m 139,-19 c -3,-3 -12,-4 -19,-1 -8,3 -5,6 6,6 11,1 17,-2 13,-5 z M 1713,503 c -199,-2 -527,-2 -730,0 -202,1 -39,2 362,2 402,0 567,-1 368,-2 z m 3795,0 c -203,-2 -533,-2 -735,0 -203,1 -37,2 367,2 404,0 570,-1 368,-2 z M 650,470 c 0,-11 -7,-20 -15,-20 -8,0 -15,9 -15,20 0,11 7,20 15,20 8,0 15,-9 15,-20 z m 1380,10 c 0,-7 -235,-10 -685,-10 -450,0 -685,3 -685,10 0,7 235,10 685,10 450,0 685,-3 685,-10 z m 40,-10 c 0,-11 -7,-20 -15,-20 -8,0 -15,9 -15,20 0,11 7,20 15,20 8,0 15,-9 15,-20 z m 2378,-3 c 2,-12 -3,-17 -17,-17 -12,0 -21,6 -21,13 0,31 32,34 38,4 z m 1377,13 c -4,-7 -243,-10 -686,-10 -446,0 -679,3 -679,10 0,7 235,10 686,10 454,0 683,-3 679,-10 z m 45,-10 c 0,-11 -7,-20 -15,-20 -8,0 -15,9 -15,20 0,11 7,20 15,20 8,0 15,-9 15,-20 z M 1693,453 c -188,-2 -498,-2 -690,0 -191,1 -37,2 342,2 380,0 536,-1 348,-2 z m 3800,0 c -188,-2 -498,-2 -690,0 -191,1 -37,2 342,2 380,0 536,-1 348,-2 z M 2065,430 c -9,-14 -1445,-14 -1445,0 0,7 249,10 726,10 481,0 723,-3 719,-10 z m 822,-288 c -1,-53 -3,-7 -3,103 0,110 2,154 3,97 2,-57 2,-147 0,-200 z m 391,245 C 3266,239 3106,82 2949,63 l -49,-6 v 192 191 h 191 191 z M 3680,249 V 57 l -44,5 c -67,8 -169,60 -224,115 -58,58 -100,140 -109,211 l -6,52 h 192 191 z m 30,1 c 0,-120 -4,-190 -10,-190 -6,0 -10,70 -10,190 0,120 4,190 10,190 6,0 10,-70 10,-190 z m 2155,180 c -9,-14 -1441,-14 -1450,0 -4,7 240,10 725,10 485,0 729,-3 725,-10 z"
         id="path22" />
    </g>
  </g>
</svg>
