<?xml version="1.0" encoding="UTF-8" standalone="no"?>
<svg
   xmlns:dc="http://purl.org/dc/elements/1.1/"
   xmlns:cc="http://creativecommons.org/ns#"
   xmlns:rdf="http://www.w3.org/1999/02/22-rdf-syntax-ns#"
   xmlns:svg="http://www.w3.org/2000/svg"
   xmlns="http://www.w3.org/2000/svg"
   xmlns:xlink="http://www.w3.org/1999/xlink"
   xmlns:sodipodi="http://sodipodi.sourceforge.net/DTD/sodipodi-0.dtd"
   xmlns:inkscape="http://www.inkscape.org/namespaces/inkscape"
   width="1920px"
   height="1920px"
   viewBox="0 0 1920 1920"
   version="1.1"
   id="SVGRoot"
   sodipodi:docname="floormap_602e0cc71ca0eb12f25497bd_1.svg"
   inkscape:version="1.0.2-2 (e86c870879, 2021-01-15)">
  <defs
     id="defs24" />
  <sodipodi:namedview
     id="base"
     pagecolor="#ffffff"
     bordercolor="#666666"
     borderopacity="1.0"
     inkscape:pageopacity="0.0"
     inkscape:pageshadow="2"
     inkscape:zoom="0.35"
     inkscape:cx="1007.0184"
     inkscape:cy="675.63875"
     inkscape:document-units="px"
     inkscape:current-layer="layer1"
     inkscape:document-rotation="0"
     showgrid="false"
     inkscape:window-width="1366"
     inkscape:window-height="745"
     inkscape:window-x="-8"
     inkscape:window-y="-8"
     inkscape:window-maximized="1" />
  <metadata
     id="metadata27">
    <rdf:RDF>
      <cc:Work
         rdf:about="">
        <dc:format>image/svg+xml</dc:format>
        <dc:type
           rdf:resource="http://purl.org/dc/dcmitype/StillImage" />
        <dc:title />
      </cc:Work>
    </rdf:RDF>
  </metadata>
  <g
     inkscape:label="Layer 1"
     inkscape:groupmode="layer"
     id="layer1">
    <g
       transform="matrix(0.3047619,0,0,-0.3047619,-15.23808,1830.0952)"
       fill="#000000"
       stroke="none"
       id="g24">
      <path
         d="M 50,3040 V 410 l 1410,2 1410,3 V 227 40 l 43,6 c 82,11 145,34 206,75 65,44 132,126 152,188 13,41 29,63 29,41 0,-29 49,-118 86,-160 74,-82 177,-134 280,-141 l 49,-4 3,183 2,182 H 5035 6350 V 3040 5670 H 3200 50 Z m 2330,2610 c 0,-7 -248,-10 -725,-10 -477,0 -725,3 -725,10 0,7 248,10 725,10 477,0 725,-3 725,-10 z m 3075,0 c 4,-7 -238,-10 -719,-10 -477,0 -726,3 -726,10 0,7 246,10 719,10 469,0 722,-3 726,-10 z M 960,5610 c 0,-11 -7,-20 -15,-20 -8,0 -15,9 -15,20 0,11 7,20 15,20 8,0 15,-9 15,-20 z m 1043,13 c -188,-2 -498,-2 -690,0 -191,1 -37,2 342,2 380,0 536,-1 348,-2 z m 377,-13 c 0,-11 -7,-20 -15,-20 -8,0 -15,9 -15,20 0,11 7,20 15,20 8,0 15,-9 15,-20 z m 1658,3 c -2,-10 -10,-18 -18,-18 -8,0 -16,8 -18,18 -2,12 3,17 18,17 15,0 20,-5 18,-17 z m 1045,10 c -188,-2 -498,-2 -690,0 -191,1 -37,2 342,2 380,0 536,-1 348,-2 z m 377,-13 c 0,-11 -7,-20 -15,-20 -8,0 -15,9 -15,20 0,11 7,20 15,20 8,0 15,-9 15,-20 z m -3120,-10 c 0,-7 -235,-10 -685,-10 -450,0 -685,3 -685,10 0,7 235,10 685,10 450,0 685,-3 685,-10 z m 3080,0 c 0,-7 -235,-10 -685,-10 -450,0 -685,3 -685,10 0,7 235,10 685,10 450,0 685,-3 685,-10 z m -3397,-27 c -199,-2 -527,-2 -730,0 -202,1 -39,2 362,2 402,0 567,-1 368,-2 z m 3075,0 c -203,-2 -533,-2 -735,0 -203,1 -37,2 367,2 404,0 570,-1 368,-2 z m 1128,-25 c 10,-10 17,-1432 9,-1840 l -7,-397 -129,-3 -129,-3 v 189 189 l -52,-7 c -71,-9 -167,-55 -222,-106 -52,-48 -111,-158 -121,-223 l -7,-42 H 4469 3370 v 164 164 l -48,-6 c -125,-15 -243,-95 -295,-201 -15,-30 -27,-61 -28,-68 0,-7 -9,11 -20,39 -45,117 -183,221 -299,226 l -55,2 -3,-156 -2,-156 -83,-6 c -45,-4 -595,-7 -1223,-7 H 173 l -6,302 c -9,387 -9,1259 0,1646 l 6,302 381,2 c 717,5 5666,1 5672,-4 z M 80,4425 c 0,-477 -3,-725 -10,-725 -7,0 -10,248 -10,725 0,477 3,725 10,725 7,0 10,-248 10,-725 z m 50,710 c 0,-8 -9,-15 -20,-15 -11,0 -20,7 -20,15 0,8 9,15 20,15 11,0 20,-7 20,-15 z m 17,-1072 c -1,-202 -2,-39 -2,362 0,402 1,567 2,368 2,-199 2,-527 0,-730 z m 6110,0 c -1,-202 -2,-39 -2,362 0,402 1,567 2,368 2,-199 2,-527 0,-730 z m 53,1072 c 0,-8 -9,-15 -20,-15 -11,0 -20,7 -20,15 0,8 9,15 20,15 11,0 20,-7 20,-15 z m 30,-710 c 0,-477 -3,-725 -10,-725 -7,0 -10,248 -10,725 0,477 3,725 10,725 7,0 10,-248 10,-725 z M 97,4083 c -1,-191 -2,-37 -2,342 0,380 1,536 2,348 2,-188 2,-498 0,-690 z m 33,342 c 0,-450 -3,-685 -10,-685 -7,0 -10,235 -10,685 0,450 3,685 10,685 7,0 10,-235 10,-685 z m 6160,0 c 0,-450 -3,-685 -10,-685 -7,0 -10,235 -10,685 0,450 3,685 10,685 7,0 10,-235 10,-685 z m 17,-342 c -1,-191 -2,-37 -2,342 0,380 1,536 2,348 2,-188 2,-498 0,-690 z M 130,3715 c 0,-8 -9,-15 -20,-15 -11,0 -20,7 -20,15 0,8 9,15 20,15 11,0 20,-7 20,-15 z m 6180,0 c 0,-8 -9,-15 -20,-15 -11,0 -20,7 -20,15 0,8 9,15 20,15 11,0 20,-7 20,-15 z m -372,-237 -3,-193 -179,-3 -179,-2 7,52 c 14,109 92,225 190,283 42,24 119,52 154,54 10,1 12,-41 10,-191 z m 19,-106 c -1,-53 -3,-7 -3,103 0,110 2,154 3,97 2,-57 2,-147 0,-200 z m -3307,83 c 0,-103 -4,-165 -10,-165 -6,0 -10,62 -10,165 0,103 4,165 10,165 6,0 10,-62 10,-165 z m 110,139 c 119,-38 230,-178 230,-291 v -23 h -165 -165 v 170 170 l 28,-6 c 15,-3 47,-12 72,-20 z m 575,-145 v -164 h -165 -165 l 2,39 c 6,92 85,201 183,251 49,25 116,45 135,41 6,-2 10,-66 10,-167 z m 22,-86 c -1,-49 -3,-9 -3,87 0,96 2,136 3,88 2,-49 2,-127 0,-175 z m -847,-108 v -35 l -1167,2 c -1117,3 -1168,4 -1171,21 -10,50 -77,47 1173,47 h 1165 z m 850,-4 c 0,-11 5,-23 10,-26 6,-4 10,-80 10,-196 v -189 h -385 -386 l 4,183 c 2,100 8,197 12,215 l 7,32 h 364 c 354,0 364,-1 364,-19 z m 2600,2 c 0,-10 7,-26 14,-35 11,-15 31,-18 133,-18 h 121 l 7,-607 c 7,-537 -1,-2052 -10,-2061 -8,-9 -1487,-14 -1797,-7 l -337,7 -3,84 -3,84 h 183 c 156,0 183,2 189,16 8,23 -23,141 -51,189 -57,96 -177,180 -274,192 l -47,5 3,759 2,759 h 550 550 v 290 290 h 181 c 192,0 209,4 209,49 0,21 4,21 190,21 174,0 190,-1 190,-17 z m 17,-5 c -3,-8 -6,-5 -6,6 -1,11 2,17 5,13 3,-3 4,-12 1,-19 z m -3465,-552 3,-514 -37,-6 c -111,-18 -214,-86 -276,-184 -30,-46 -62,-144 -62,-189 v -23 h 188 187 l -3,-337 c -2,-236 1,-339 8,-343 6,-4 -12,-10 -42,-13 -165,-20 -315,-175 -335,-349 l -6,-48 199,-1 c 109,0 193,-3 187,-6 -9,-3 -13,-29 -13,-78 v -73 l -457,-7 c -392,-7 -1870,-1 -1879,7 -9,9 -16,1505 -9,2041 l 7,637 h 1169 1169 z m 1066,507 -97,-4 -4,-127 -3,-127 -2,133 -2,132 103,-2 102,-2 z m 340,0 c -43,-2 -113,-2 -155,0 -43,1 -8,3 77,3 85,0 120,-2 78,-3 z m 175,0 c -18,-2 -48,-2 -65,0 -18,2 -4,4 32,4 36,0 50,-2 33,-4 z m 135,0 c -15,-2 -42,-2 -60,0 -18,2 -6,4 27,4 33,0 48,-2 33,-4 z m 130,0 c -15,-2 -42,-2 -60,0 -18,2 -6,4 27,4 33,0 48,-2 33,-4 z m 135,0 c -18,-2 -48,-2 -65,0 -18,2 -4,4 32,4 36,0 50,-2 33,-4 z m 130,0 c -18,-2 -48,-2 -65,0 -18,2 -4,4 32,4 36,0 50,-2 33,-4 z m 130,0 c -18,-2 -48,-2 -65,0 -18,2 -4,4 32,4 36,0 50,-2 33,-4 z m 130,0 c -18,-2 -48,-2 -65,0 -18,2 -4,4 32,4 36,0 50,-2 33,-4 z m 135,0 c -15,-2 -42,-2 -60,0 -18,2 -6,4 27,4 33,0 48,-2 33,-4 z m 130,0 c -15,-2 -42,-2 -60,0 -18,2 -6,4 27,4 33,0 48,-2 33,-4 z M 3750,3068 c 36,-66 67,-125 68,-129 2,-5 -17,-9 -42,-9 h -46 v -65 c 0,-36 -2,-65 -5,-65 -3,0 -56,31 -118,69 l -112,69 -3,126 -3,126 h 98 98 z m 240,-8 v -130 h -77 -78 l -67,124 c -38,68 -68,127 -68,130 0,3 65,6 145,6 h 145 z m 130,0 v -130 h -60 -60 v 130 130 h 60 60 z m 140,0 v -130 h -65 -65 v 130 130 h 65 65 z m 130,0 v -130 h -60 -60 v 130 130 h 60 60 z m 130,0 v -130 h -60 -60 v 130 130 h 60 60 z m 130,0 v -130 h -60 -60 v 130 130 h 60 60 z m 130,0 v -130 h -60 -60 v 130 130 h 60 60 z m 130,0 v -130 h -60 -60 v 130 130 h 60 60 z m 140,0 v -130 h -65 -65 v 130 130 h 65 65 z m 130,5 c 0,-69 -4,-125 -8,-125 -5,0 -17,7 -28,15 -10,8 -23,14 -29,14 -5,1 1,-8 15,-19 l 25,-20 h -47 -48 v 130 130 h 60 60 z M 3477,2708 c -1,-46 -3,-11 -3,77 0,88 2,125 3,83 2,-42 2,-114 0,-160 z m 241,80 c 7,-7 12,-37 12,-84 v -74 h -120 -120 v 150 150 l 108,-66 c 59,-37 113,-71 120,-76 z m 185,-1 c 38,-70 71,-126 74,-124 2,3 -26,58 -62,123 -36,66 -65,122 -65,127 0,4 32,7 70,7 h 70 v -129 c 0,-78 -4,-132 -10,-136 -6,-4 -61,24 -123,62 l -112,68 -3,68 -3,68 47,-3 48,-3 z m 217,-2 v -135 h -60 -60 v 135 135 h 60 60 z m 138,-2 3,-133 h -66 -65 v 128 c 0,71 3,132 7,136 4,4 32,6 63,4 l 55,-3 z m 130,0 3,-133 h -61 -60 v 135 136 l 58,-3 57,-3 z m 132,2 v -135 h -60 -60 v 135 135 h 60 60 z m 130,0 v -135 h -60 -60 v 135 135 h 60 60 z m 130,0 v -135 h -60 -60 v 135 135 h 60 60 z m 130,0 v -135 h -60 -60 v 135 135 h 60 60 z m 135,0 v -130 l -62,-3 -63,-3 v 129 c 0,71 3,132 7,136 4,4 32,6 63,4 l 55,-3 z m 90,109 -30,-26 38,22 37,22 v -131 -131 h -60 -60 v 135 135 h 53 52 z M 3853,2708 c 56,-34 106,-65 112,-70 5,-4 -44,-8 -108,-8 h -117 v 70 c 0,39 3,70 6,70 3,0 51,-28 107,-62 z m -475,-600 2,-628 h -385 -385 v 143 c 0,151 -4,167 -47,167 h -23 v 190 190 h 23 c 46,0 47,8 47,290 0,147 3,270 7,273 4,4 176,6 382,5 l 376,-3 z m 715,525 c -18,-2 -48,-2 -65,0 -18,2 -4,4 32,4 36,0 50,-2 33,-4 z m 134,0 c -20,-2 -52,-2 -70,0 -17,2 0,4 38,4 39,0 53,-2 32,-4 z m 136,0 c -18,-2 -48,-2 -65,0 -18,2 -4,4 32,4 36,0 50,-2 33,-4 z m 130,0 c -18,-2 -48,-2 -65,0 -18,2 -4,4 32,4 36,0 50,-2 33,-4 z m 130,0 c -18,-2 -48,-2 -65,0 -18,2 -4,4 32,4 36,0 50,-2 33,-4 z m 130,0 c -18,-2 -48,-2 -65,0 -18,2 -4,4 32,4 36,0 50,-2 33,-4 z m 130,0 c -18,-2 -48,-2 -65,0 -18,2 -4,4 32,4 36,0 50,-2 33,-4 z m 130,0 c -18,-2 -48,-2 -65,0 -18,2 -4,4 32,4 36,0 50,-2 33,-4 z m 140,0 c -18,-2 -48,-2 -65,0 -18,2 -4,4 32,4 36,0 50,-2 33,-4 z m -1676,-95 c -2,-18 -4,-6 -4,27 0,33 2,48 4,33 2,-15 2,-42 0,-60 z m 253,27 v -55 h -120 -120 v 55 55 h 120 120 z m 240,0 v -55 h -115 -115 v 55 55 h 115 115 z m 17,-27 c -2,-18 -4,-6 -4,27 0,33 2,48 4,33 2,-15 2,-42 0,-60 z M 6257,1513 c -1,-202 -2,-39 -2,362 0,402 1,567 2,368 2,-199 2,-527 0,-730 z m 53,1072 c 0,-8 -9,-15 -20,-15 -11,0 -20,7 -20,15 0,8 9,15 20,15 11,0 20,-7 20,-15 z m 30,-710 c 0,-477 -3,-725 -10,-725 -7,0 -10,248 -10,725 0,477 3,725 10,725 7,0 10,-248 10,-725 z M 80,1865 c 0,-477 -3,-725 -10,-725 -11,0 -15,1432 -3,1443 3,4 8,7 10,7 2,0 3,-326 3,-725 z m 50,710 c 0,-8 -9,-15 -20,-15 -11,0 -20,7 -20,15 0,8 9,15 20,15 11,0 20,-7 20,-15 z m 17,-1083 c -1,-202 -2,-36 -2,368 0,404 1,570 2,367 2,-202 2,-532 0,-735 z m 6143,383 c 0,-450 -3,-685 -10,-685 -7,0 -10,235 -10,685 0,450 3,685 10,685 7,0 10,-235 10,-685 z m 17,-342 c -1,-191 -2,-37 -2,342 0,380 1,536 2,348 2,-188 2,-498 0,-690 z M 97,1513 c -1,-192 -2,-35 -2,347 0,382 1,539 2,348 2,-192 2,-504 0,-695 z m 33,352 c 0,-450 -3,-685 -10,-685 -11,0 -15,1352 -3,1363 3,4 8,7 10,7 2,0 3,-308 3,-685 z m 3347,543 c -2,-18 -4,-4 -4,32 0,36 2,50 4,33 2,-18 2,-48 0,-65 z m 248,32 v -55 l -117,-3 -118,-3 v 61 61 l 118,-3 117,-3 z m 245,0 v -60 h -115 -115 v 60 60 h 115 115 z m 17,-22 c -2,-18 -4,-6 -4,27 0,33 2,48 4,33 2,-15 2,-42 0,-60 z m -510,-130 c -2,-18 -4,-6 -4,27 0,33 2,48 4,33 2,-15 2,-42 0,-60 z m 253,27 v -55 h -120 -120 v 55 55 h 120 120 z m 240,0 v -55 h -115 -115 v 55 55 h 115 115 z m 17,-27 c -2,-18 -4,-6 -4,27 0,33 2,48 4,33 2,-15 2,-42 0,-60 z m -510,-120 c -2,-18 -4,-6 -4,27 0,33 2,48 4,33 2,-15 2,-42 0,-60 z m 253,27 v -55 h -120 -120 v 55 55 h 120 120 z m 240,0 v -55 h -115 -115 v 55 55 h 115 115 z m 17,-27 c -2,-18 -4,-6 -4,27 0,33 2,48 4,33 2,-15 2,-42 0,-60 z M 2530,1990 v -180 h -190 -191 l 7,38 c 10,63 60,159 107,206 63,63 169,114 240,115 l 27,1 z m 947,48 c -2,-18 -4,-4 -4,32 0,36 2,50 4,33 2,-18 2,-48 0,-65 z m 248,32 v -55 l -117,-3 -118,-3 v 61 61 l 118,-3 117,-3 z m 245,0 v -60 h -115 -115 v 60 60 h 115 115 z m 17,-22 c -2,-18 -4,-6 -4,27 0,33 2,48 4,33 2,-15 2,-42 0,-60 z m -510,-130 c -2,-18 -4,-6 -4,27 0,33 2,48 4,33 2,-15 2,-42 0,-60 z m 253,27 v -55 h -120 -120 v 55 55 h 120 120 z m 240,0 v -55 h -115 -115 v 55 55 h 115 115 z m 17,-27 c -2,-18 -4,-6 -4,27 0,33 2,48 4,33 2,-15 2,-42 0,-60 z m -510,-120 c -2,-18 -4,-6 -4,27 0,33 2,48 4,33 2,-15 2,-42 0,-60 z m 253,27 v -55 h -120 -120 v 55 55 h 120 120 z m 240,0 v -55 h -115 -115 v 55 55 h 115 115 z m 17,-27 c -2,-18 -4,-6 -4,27 0,33 2,48 4,33 2,-15 2,-42 0,-60 z m -1549,-5 c -54,-2 -142,-2 -195,0 -54,1 -10,3 97,3 107,0 151,-2 98,-3 z m 139,-19 c -3,-3 -12,-4 -19,-1 -8,3 -5,6 6,6 11,1 17,-2 13,-5 z m 900,-106 c -2,-18 -4,-4 -4,32 0,36 2,50 4,33 2,-18 2,-48 0,-65 z m 248,32 v -55 l -117,-3 -118,-3 v 61 61 l 118,-3 117,-3 z m 245,0 v -60 h -115 -115 v 60 60 h 115 115 z m 17,-22 c -2,-18 -4,-6 -4,27 0,33 2,48 4,33 2,-15 2,-42 0,-60 z m -510,-130 c -2,-18 -4,-6 -4,27 0,33 2,48 4,33 2,-15 2,-42 0,-60 z m 253,27 v -55 h -120 -120 v 55 55 h 120 120 z m 240,0 v -55 h -115 -115 v 55 55 h 115 115 z m 17,-27 c -2,-18 -4,-6 -4,27 0,33 2,48 4,33 2,-15 2,-42 0,-60 z m -510,-120 c -2,-18 -4,-6 -4,27 0,33 2,48 4,33 2,-15 2,-42 0,-60 z m 253,27 v -55 h -120 -120 v 55 55 h 120 120 z m 240,0 v -55 h -115 -115 v 55 55 h 115 115 z m 17,-27 c -2,-18 -4,-6 -4,27 0,33 2,48 4,33 2,-15 2,-42 0,-60 z m -7,-179 c 0,-114 2,-134 18,-145 9,-7 25,-14 35,-14 16,0 17,-16 17,-190 V 710 h -23 c -38,0 -47,-19 -47,-102 v -78 h -130 -130 l -6,-40 -7,-40 h -413 -414 v 25 c 0,14 -4,25 -10,25 -5,0 -10,7 -10,15 0,12 -23,15 -122,17 l -123,3 -3,70 c -3,76 -13,95 -48,95 h -24 v 190 190 h 23 c 42,0 47,16 47,155 0,73 3,135 7,138 3,4 312,7 685,7 h 678 z m 2330,-84 c 0,-8 -9,-15 -20,-15 -11,0 -20,7 -20,15 0,8 9,15 20,15 11,0 20,-7 20,-15 z M 128,1148 c -7,-19 -38,-22 -38,-4 0,10 9,16 21,16 12,0 19,-5 17,-12 z m 2449,-54 c -3,-3 -12,-4 -19,-1 -8,3 -5,6 6,6 11,1 17,-2 13,-5 z m 1656,-42 c 37,-18 83,-52 107,-78 43,-47 94,-145 104,-201 l 6,-33 h -195 -195 v 176 176 l 54,-4 c 33,-3 80,-17 119,-36 z M 2530,900 V 720 h -191 -191 l 6,38 c 10,50 57,150 91,190 56,67 180,130 258,131 l 27,1 z M 4358,713 c -53,-2 -143,-2 -200,0 -57,1 -13,3 97,3 110,0 156,-2 103,-3 z M 2438,703 c -54,-2 -142,-2 -195,0 -54,1 -10,3 97,3 107,0 151,-2 98,-3 z m 139,-19 c -3,-3 -12,-4 -19,-1 -8,3 -5,6 6,6 11,1 17,-2 13,-5 z M 1713,503 c -199,-2 -527,-2 -730,0 -202,1 -39,2 362,2 402,0 567,-1 368,-2 z m 3795,0 c -203,-2 -533,-2 -735,0 -203,1 -37,2 367,2 404,0 570,-1 368,-2 z M 650,470 c 0,-11 -7,-20 -15,-20 -8,0 -15,9 -15,20 0,11 7,20 15,20 8,0 15,-9 15,-20 z m 1380,10 c 0,-7 -235,-10 -685,-10 -450,0 -685,3 -685,10 0,7 235,10 685,10 450,0 685,-3 685,-10 z m 40,-10 c 0,-11 -7,-20 -15,-20 -8,0 -15,9 -15,20 0,11 7,20 15,20 8,0 15,-9 15,-20 z m 2378,-3 c 2,-12 -3,-17 -17,-17 -12,0 -21,6 -21,13 0,31 32,34 38,4 z m 1377,13 c -4,-7 -243,-10 -686,-10 -446,0 -679,3 -679,10 0,7 235,10 686,10 454,0 683,-3 679,-10 z m 45,-10 c 0,-11 -7,-20 -15,-20 -8,0 -15,9 -15,20 0,11 7,20 15,20 8,0 15,-9 15,-20 z M 1693,453 c -188,-2 -498,-2 -690,0 -191,1 -37,2 342,2 380,0 536,-1 348,-2 z m 3800,0 c -188,-2 -498,-2 -690,0 -191,1 -37,2 342,2 380,0 536,-1 348,-2 z M 2065,430 c -9,-14 -1445,-14 -1445,0 0,7 249,10 726,10 481,0 723,-3 719,-10 z m 822,-288 c -1,-53 -3,-7 -3,103 0,110 2,154 3,97 2,-57 2,-147 0,-200 z m 391,245 C 3266,239 3106,82 2949,63 l -49,-6 v 192 191 h 191 191 z M 3680,249 V 57 l -44,5 c -67,8 -169,60 -224,115 -58,58 -100,140 -109,211 l -6,52 h 192 191 z m 30,1 c 0,-120 -4,-190 -10,-190 -6,0 -10,70 -10,190 0,120 4,190 10,190 6,0 10,-70 10,-190 z m 2155,180 c -9,-14 -1441,-14 -1450,0 -4,7 240,10 725,10 485,0 729,-3 725,-10 z"
         id="path22" />
    </g>
    <text
       xml:space="preserve"
       style="font-style:normal;font-weight:normal;font-size:64px;line-height:1.25;font-family:sans-serif;fill:#cccccc;fill-opacity:1;stroke:none"
       x="803.64929"
       y="500.83405"
       id="text120"><tspan
         sodipodi:role="line"
         id="tspan118"
         x="803.64929"
         y="500.83405"
         style="font-style:normal;font-variant:normal;font-weight:bold;font-stretch:normal;font-size:64px;font-family:'Nunito Sans';-inkscape-font-specification:'Nunito Sans Bold';fill:#cccccc">Workshop</tspan></text>
    <g
       style="fill:#ffffff;fill-rule:evenodd;stroke:#000000;stroke-linecap:round;stroke-linejoin:round"
       id="g998"
       transform="translate(908.25474,995.56125)">
      <use
         xlink:href="#A"
         x="0.5"
         y="0.5"
         id="use973"
         width="100%"
         height="100%" />
      <symbol
         id="A"
         overflow="visible">
        <path
           d="m 4.251,68.276 c 0,-30.773 16.825,-55.568 37.857,-55.568 20.81,0 37.857,24.795 37.857,55.568 0,30.773 -17.047,55.568 -37.857,55.568 -21.032,0 -37.857,-24.795 -37.857,-55.568 z"
           id="path975" />
        <path
           d="m 0,0 v 9.962 c 0,0 1.992,11.955 42.064,11.955 40.072,0 42.063,-11.955 42.063,-11.955 L 83.906,0 Z"
           id="path977" />
        <path
           d="m 17.246,73.722 c 0,-20.146 11.069,-36.529 24.795,-36.529 13.726,0 24.795,16.383 24.795,36.529 0,20.146 -11.069,36.529 -24.795,36.529 -13.726,0 -24.795,-16.383 -24.795,-36.529 z"
           fill="#ccf2ff"
           id="path979" />
        <path
           d="m 37.237,10.87 c 0,-2.435 2.214,-4.428 4.871,-4.428 2.657,0 4.871,1.993 4.871,4.428 0,2.435 -2.214,4.428 -4.871,4.428 -2.657,0 -4.871,-1.993 -4.871,-4.428 z"
           fill="#546e7a"
           id="path981" />
      </symbol>
    </g>
    <g
       style="fill:#ffffff;fill-rule:evenodd;stroke:#000000;stroke-linecap:round;stroke-linejoin:round"
       id="g1025"
       transform="rotate(90,-54.571756,941.00564)">
      <use
         xlink:href="#A-7"
         x="0.5"
         y="0.5"
         id="use1000"
         width="100%"
         height="100%" />
      <symbol
         id="A-7"
         overflow="visible">
        <path
           d="M 6.642,0 H 71.73 c 3.542,0 6.42,2.435 6.42,5.313 v 83.242 c 0,2.878 -2.878,5.313 -6.42,5.313 H 6.642 C 2.878,93.868 0,91.433 0,88.555 V 5.313 C 0,2.435 2.878,0 6.642,0 Z"
           id="path1002" />
        <path
           d="m 25.748,4.273 h 43.613 c 2.435,0 4.428,2.214 4.428,4.871 v 75.714 c 0,2.435 -1.993,4.649 -4.428,4.649 H 25.748 c -2.435,0 -4.428,-2.214 -4.428,-4.649 V 9.144 c 0,-2.657 1.993,-4.871 4.428,-4.871 z"
           fill="#ccf2ff"
           id="path1004" />
        <path
           d="m 8.014,43.945 h 22.139 v 5.977 H 8.014 Z"
           fill="#c1c1c1"
           id="path1006" />
        <path
           d="m 12.796,30.574 v 11.512 m -0.177,9.32 V 63.14"
           fill="none"
           id="path1008" />
      </symbol>
    </g>
    <rect
       style="opacity:1;fill:#ffffff;stroke:#000000;stroke-width:2;stroke-linejoin:round;stroke-miterlimit:4;stroke-dasharray:none;stroke-opacity:1"
       id="rect1071"
       width="442.71432"
       height="31.619061"
       x="268.7619"
       y="103.95237" />
    <rect
       style="opacity:1;fill:#000000;stroke:#000000;stroke-width:1.33027;stroke-linejoin:round;stroke-miterlimit:4;stroke-dasharray:none;stroke-opacity:1"
       id="rect1073"
       width="442.00308"
       height="1.8721112"
       x="269.53418"
       y="110.68893" />
    <rect
       style="fill:#000000;stroke:#000000;stroke-width:1.33027;stroke-linejoin:round;stroke-miterlimit:4;stroke-dasharray:none;stroke-opacity:1"
       id="rect1073-5"
       width="442.00308"
       height="1.8721112"
       x="269.73502"
       y="118.6874" />
    <rect
       style="fill:#000000;stroke:#000000;stroke-width:1.33027;stroke-linejoin:round;stroke-miterlimit:4;stroke-dasharray:none;stroke-opacity:1"
       id="rect1073-5-9"
       width="442.00308"
       height="1.8721112"
       x="269.2886"
       y="126.86309" />
    <rect
       style="fill:#ffffff;stroke:#000000;stroke-width:2;stroke-linejoin:round;stroke-miterlimit:4;stroke-dasharray:none;stroke-opacity:1"
       id="rect1071-8"
       width="442.71432"
       height="31.619061"
       x="1204.7153"
       y="103.72675" />
    <rect
       style="fill:#000000;stroke:#000000;stroke-width:1.33027;stroke-linejoin:round;stroke-miterlimit:4;stroke-dasharray:none;stroke-opacity:1"
       id="rect1073-8"
       width="442.00308"
       height="1.8721112"
       x="1205.4875"
       y="110.46331" />
    <rect
       style="fill:#000000;stroke:#000000;stroke-width:1.33027;stroke-linejoin:round;stroke-miterlimit:4;stroke-dasharray:none;stroke-opacity:1"
       id="rect1073-5-4"
       width="442.00308"
       height="1.8721112"
       x="1205.6884"
       y="118.46178" />
    <rect
       style="fill:#000000;stroke:#000000;stroke-width:1.33027;stroke-linejoin:round;stroke-miterlimit:4;stroke-dasharray:none;stroke-opacity:1"
       id="rect1073-5-9-1"
       width="442.00308"
       height="1.8721112"
       x="1205.2419"
       y="126.63747" />
    <rect
       style="fill:#ffffff;stroke:#000000;stroke-width:2.00441;stroke-linejoin:round;stroke-miterlimit:4;stroke-dasharray:none;stroke-opacity:1"
       id="rect1071-4"
       width="444.66937"
       height="31.619061"
       x="1328.782"
       y="1672.1221" />
    <rect
       style="fill:#000000;stroke:#000000;stroke-width:1.3332;stroke-linejoin:round;stroke-miterlimit:4;stroke-dasharray:none;stroke-opacity:1"
       id="rect1073-2"
       width="443.95499"
       height="1.8721112"
       x="1329.5576"
       y="1678.8586" />
    <rect
       style="fill:#000000;stroke:#000000;stroke-width:1.3332;stroke-linejoin:round;stroke-miterlimit:4;stroke-dasharray:none;stroke-opacity:1"
       id="rect1073-5-6"
       width="443.95499"
       height="1.8721112"
       x="1329.7593"
       y="1686.8571" />
    <rect
       style="fill:#000000;stroke:#000000;stroke-width:1.3332;stroke-linejoin:round;stroke-miterlimit:4;stroke-dasharray:none;stroke-opacity:1"
       id="rect1073-5-9-2"
       width="443.95499"
       height="1.8721112"
       x="1329.3109"
       y="1695.0328" />
    <rect
       style="fill:#ffffff;stroke:#000000;stroke-width:1.98795;stroke-linejoin:round;stroke-miterlimit:4;stroke-dasharray:none;stroke-opacity:1"
       id="rect1071-4-9"
       width="444.68469"
       height="31.100916"
       x="170.67914"
       y="1672.1133" />
    <rect
       style="fill:#000000;stroke:#000000;stroke-width:1.32225;stroke-linejoin:round;stroke-miterlimit:4;stroke-dasharray:none;stroke-opacity:1"
       id="rect1073-2-3"
       width="443.97031"
       height="1.8414327"
       x="171.45479"
       y="1678.7395" />
    <rect
       style="fill:#000000;stroke:#000000;stroke-width:1.32225;stroke-linejoin:round;stroke-miterlimit:4;stroke-dasharray:none;stroke-opacity:1"
       id="rect1073-5-6-9"
       width="443.97031"
       height="1.8414327"
       x="171.65646"
       y="1686.6068" />
    <rect
       style="fill:#000000;stroke:#000000;stroke-width:1.32225;stroke-linejoin:round;stroke-miterlimit:4;stroke-dasharray:none;stroke-opacity:1"
       id="rect1073-5-9-2-4"
       width="443.97031"
       height="1.8414327"
       x="171.20808"
       y="1694.6486" />
    <rect
       style="fill:#ffffff;stroke:#000000;stroke-width:2;stroke-linejoin:round;stroke-miterlimit:4;stroke-dasharray:none;stroke-opacity:1"
       id="rect1071-6"
       width="442.71432"
       height="31.619061"
       x="260.50592"
       y="-33.187569"
       transform="rotate(90)" />
    <rect
       style="fill:#000000;stroke:#000000;stroke-width:1.33027;stroke-linejoin:round;stroke-miterlimit:4;stroke-dasharray:none;stroke-opacity:1"
       id="rect1073-29"
       width="442.00308"
       height="1.8721112"
       x="261.12149"
       y="-18.73078"
       transform="rotate(90)" />
    <rect
       style="fill:#000000;stroke:#000000;stroke-width:1.33027;stroke-linejoin:round;stroke-miterlimit:4;stroke-dasharray:none;stroke-opacity:1"
       id="rect1073-5-95"
       width="442.00308"
       height="1.8721112"
       x="260.90164"
       y="-26.967367"
       transform="rotate(90)" />
    <rect
       style="fill:#000000;stroke:#000000;stroke-width:1.33027;stroke-linejoin:round;stroke-miterlimit:4;stroke-dasharray:none;stroke-opacity:1"
       id="rect1073-5-9-4"
       width="442.00308"
       height="1.8721112"
       x="261.30283"
       y="-10.196999"
       transform="rotate(90)" />
    <rect
       style="fill:#ffffff;stroke:#000000;stroke-width:2;stroke-linejoin:round;stroke-miterlimit:4;stroke-dasharray:none;stroke-opacity:1"
       id="rect1071-6-3"
       width="442.71432"
       height="31.619061"
       x="1040.7797"
       y="-33.276802"
       transform="rotate(90)" />
    <rect
       style="fill:#000000;stroke:#000000;stroke-width:1.33027;stroke-linejoin:round;stroke-miterlimit:4;stroke-dasharray:none;stroke-opacity:1"
       id="rect1073-29-9"
       width="442.00308"
       height="1.8721112"
       x="1041.3953"
       y="-18.820013"
       transform="rotate(90)" />
    <rect
       style="fill:#000000;stroke:#000000;stroke-width:1.33027;stroke-linejoin:round;stroke-miterlimit:4;stroke-dasharray:none;stroke-opacity:1"
       id="rect1073-5-95-5"
       width="442.00308"
       height="1.8721112"
       x="1041.1754"
       y="-27.056616"
       transform="rotate(90)" />
    <rect
       style="fill:#000000;stroke:#000000;stroke-width:1.33027;stroke-linejoin:round;stroke-miterlimit:4;stroke-dasharray:none;stroke-opacity:1"
       id="rect1073-5-9-4-0"
       width="442.00308"
       height="1.8721112"
       x="1041.5767"
       y="-10.286231"
       transform="rotate(90)" />
    <rect
       style="fill:#ffffff;stroke:#000000;stroke-width:2.01115;stroke-linejoin:round;stroke-miterlimit:4;stroke-dasharray:none;stroke-opacity:1"
       id="rect1071-6-8"
       width="442.71432"
       height="31.972605"
       x="260.92865"
       y="-1918.9362"
       transform="rotate(90)" />
    <rect
       style="fill:#000000;stroke:#000000;stroke-width:1.33769;stroke-linejoin:round;stroke-miterlimit:4;stroke-dasharray:none;stroke-opacity:1"
       id="rect1073-29-5"
       width="442.00308"
       height="1.893044"
       x="261.54419"
       y="-1904.3177"
       transform="rotate(90)" />
    <rect
       style="fill:#000000;stroke:#000000;stroke-width:1.33769;stroke-linejoin:round;stroke-miterlimit:4;stroke-dasharray:none;stroke-opacity:1"
       id="rect1073-5-95-8"
       width="442.00308"
       height="1.893044"
       x="261.32434"
       y="-1912.6464"
       transform="rotate(90)" />
    <rect
       style="fill:#000000;stroke:#000000;stroke-width:1.33769;stroke-linejoin:round;stroke-miterlimit:4;stroke-dasharray:none;stroke-opacity:1"
       id="rect1073-5-9-4-4"
       width="442.00308"
       height="1.893044"
       x="261.72552"
       y="-1895.6885"
       transform="rotate(90)" />
    <rect
       style="fill:#ffffff;stroke:#000000;stroke-width:2;stroke-linejoin:round;stroke-miterlimit:4;stroke-dasharray:none;stroke-opacity:1"
       id="rect1071-6-7"
       width="442.71432"
       height="31.619061"
       x="1036.7083"
       y="-1918.3452"
       transform="rotate(90)" />
    <rect
       style="fill:#000000;stroke:#000000;stroke-width:1.33027;stroke-linejoin:round;stroke-miterlimit:4;stroke-dasharray:none;stroke-opacity:1"
       id="rect1073-29-0"
       width="442.00308"
       height="1.8721112"
       x="1037.3239"
       y="-1903.8884"
       transform="rotate(90)" />
    <rect
       style="fill:#000000;stroke:#000000;stroke-width:1.33027;stroke-linejoin:round;stroke-miterlimit:4;stroke-dasharray:none;stroke-opacity:1"
       id="rect1073-5-95-1"
       width="442.00308"
       height="1.8721112"
       x="1037.104"
       y="-1912.125"
       transform="rotate(90)" />
    <rect
       style="fill:#000000;stroke:#000000;stroke-width:1.33027;stroke-linejoin:round;stroke-miterlimit:4;stroke-dasharray:none;stroke-opacity:1"
       id="rect1073-5-9-4-44"
       width="442.00308"
       height="1.8721112"
       x="1037.5051"
       y="-1895.3546"
       transform="rotate(90)" />
    <text
       xml:space="preserve"
       style="font-style:normal;font-weight:normal;font-size:64px;line-height:1.25;font-family:sans-serif;fill:#cccccc;fill-opacity:1;stroke:none"
       x="277.32831"
       y="1291.2274"
       id="text120-3"><tspan
         sodipodi:role="line"
         id="tspan118-8"
         x="277.32831"
         y="1291.2274"
         style="font-style:normal;font-variant:normal;font-weight:bold;font-stretch:normal;font-size:64px;font-family:'Nunito Sans';-inkscape-font-specification:'Nunito Sans Bold';fill:#cccccc">Office 1</tspan></text>
    <text
       xml:space="preserve"
       style="font-style:normal;font-weight:normal;font-size:64px;line-height:1.25;font-family:sans-serif;fill:#cccccc;fill-opacity:1;stroke:none"
       x="906.60132"
       y="1568.3702"
       id="text120-3-2"><tspan
         sodipodi:role="line"
         id="tspan118-8-5"
         x="906.60132"
         y="1568.3702"
         style="font-style:normal;font-variant:normal;font-weight:bold;font-stretch:normal;font-size:64px;font-family:'Nunito Sans';-inkscape-font-specification:'Nunito Sans Bold';fill:#cccccc">Foyer</tspan></text>
    <text
       xml:space="preserve"
       style="font-style:normal;font-weight:normal;font-size:64px;line-height:1.25;font-family:sans-serif;fill:#cccccc;fill-opacity:1;stroke:none"
       x="1446.6013"
       y="1291.2274"
       id="text120-3-21"><tspan
         sodipodi:role="line"
         id="tspan118-8-3"
         x="1446.6013"
         y="1291.2274"
         style="font-style:normal;font-variant:normal;font-weight:bold;font-stretch:normal;font-size:64px;font-family:'Nunito Sans';-inkscape-font-specification:'Nunito Sans Bold';fill:#cccccc">Office 2</tspan></text>
    <g
       style="fill:#ffffff;fill-rule:evenodd;stroke:#000000;stroke-linecap:round;stroke-linejoin:round"
       id="g534"
       transform="rotate(90,-208.59901,1166.8515)">
      <use
         xlink:href="#A-5"
         x="2.0829999"
         y="2.0829999"
         id="use483"
         width="100%"
         height="100%" />
      <symbol
         id="A-5"
         overflow="visible">
        <g
           stroke="none"
           fill-rule="nonzero"
           id="g499">
          <path
             d="m 52.89,38.177 v 74.75 H 14.807 V 38.177 C 14.576,30.098 19.559,22.783 27.161,20.04 a 13.26,13.26 0 0 1 1.354,-0.367 h 0.021 a 15.59,15.59 0 0 1 3.458,-0.39 h 3.708 c 9.5,0 17.188,8.45 17.188,18.896 z"
             fill="#d22f27"
             id="path485" />
          <path
             d="m 39.515,35.266 v 77.66 H 14.807 V 38.176 C 14.576,30.097 19.559,22.782 27.161,20.039 a 13.26,13.26 0 0 1 1.354,-0.367 h 0.021 a 15.59,15.59 0 0 1 3.458,-0.39 h 0.313 a 20.51,20.51 0 0 1 7.208,15.985 z M 29.49,0.379 h 8.721 V 18.512 H 29.49 Z"
             fill="#ea5a47"
             id="path487" />
          <g
             fill="#d0cfce"
             id="g495">
            <path
               d="m 52.89,6.087 v 6.64 H 38.209 v -6.64 z"
               id="path489" />
            <path
               id="use491"
               d="m 29.494,6.087 h -9.667 a 9.4,9.4 0 0 0 -7.802,4.16 L 0.559,27.331 a 3.32,3.32 0 0 0 1.406,4.875 c 1.543,0.634 3.319,0.07 4.215,-1.337 l 9.323,-13.965 a 9.4,9.4 0 0 1 7.817,-4.179 h 6.179 z" />
            <path
               d="m 52.89,5.452 v 7.985 l 25.194,5.458 V 0 L 52.89,5.458 Z"
               id="path493" />
          </g>
          <path
             d="M 24.063,40.602 H 43.636 V 52.423 H 24.063 Z"
             id="path497" />
        </g>
        <g
           fill="none"
           stroke-width="4.167"
           id="g507">
          <path
             d="m 33.828,19.285 c 10.517,0 19.042,8.525 19.042,19.042 v 72.735 a 1.86,1.86 0 0 1 -0.544,1.313 c -0.348,0.348 -0.82,0.544 -1.312,0.544 H 16.665 c -0.492,0 -0.964,-0.196 -1.312,-0.544 -0.348,-0.348 -0.544,-0.82 -0.544,-1.313 V 38.327 c 0,-10.516 8.524,-19.04 19.04,-19.042 z M 29.469,0.379 H 38.19 V 18.512 H 29.469 Z M 52.89,6.087 v 6.64 H 38.209 v -6.64 z"
             id="path501" />
          <path
             id="use503"
             d="m 29.494,6.087 h -9.667 a 9.4,9.4 0 0 0 -7.802,4.16 L 0.559,27.331 a 3.32,3.32 0 0 0 1.406,4.875 c 1.543,0.634 3.319,0.07 4.215,-1.337 l 9.323,-13.965 a 9.4,9.4 0 0 1 7.817,-4.179 h 6.179 z" />
          <path
             d="m 52.89,5.452 v 7.985 l 25.194,5.458 V 0 L 52.89,5.458 Z M 24.063,40.602 H 43.636 V 52.423 H 24.063 Z"
             id="path505" />
        </g>
      </symbol>
    </g>
  </g>
</svg>
