<?xml version="1.0" encoding="UTF-8" standalone="no"?>
<svg
   xmlns:dc="http://purl.org/dc/elements/1.1/"
   xmlns:cc="http://creativecommons.org/ns#"
   xmlns:rdf="http://www.w3.org/1999/02/22-rdf-syntax-ns#"
   xmlns:svg="http://www.w3.org/2000/svg"
   xmlns="http://www.w3.org/2000/svg"
   xmlns:sodipodi="http://sodipodi.sourceforge.net/DTD/sodipodi-0.dtd"
   xmlns:inkscape="http://www.inkscape.org/namespaces/inkscape"
   width="1920px"
   height="1920px"
   viewBox="0 0 1920 1920"
   version="1.1"
   id="SVGRoot"
   sodipodi:docname="floorplantwo.svg"
   inkscape:version="1.0.2-2 (e86c870879, 2021-01-15)">
  <defs
     id="defs24" />
  <sodipodi:namedview
     id="base"
     pagecolor="#ffffff"
     bordercolor="#666666"
     borderopacity="1.0"
     inkscape:pageopacity="0.0"
     inkscape:pageshadow="2"
     inkscape:zoom="0.175"
     inkscape:cx="1054.9194"
     inkscape:cy="949.58831"
     inkscape:document-units="px"
     inkscape:current-layer="layer1"
     inkscape:document-rotation="0"
     showgrid="false"
     inkscape:window-width="1267"
     inkscape:window-height="729"
     inkscape:window-x="83"
     inkscape:window-y="0"
     inkscape:window-maximized="0" />
  <metadata
     id="metadata27">
    <rdf:RDF>
      <cc:Work
         rdf:about="">
        <dc:format>image/svg+xml</dc:format>
        <dc:type
           rdf:resource="http://purl.org/dc/dcmitype/StillImage" />
        <dc:title></dc:title>
      </cc:Work>
    </rdf:RDF>
  </metadata>
  <g
     inkscape:label="Layer 1"
     inkscape:groupmode="layer"
     id="layer1">
    <g
       transform="matrix(0.30547173,0,0,-0.30547173,-16.800945,1693.1322)"
       fill="#000000"
       stroke="none"
       id="g622">
      <path
         d="M 55,2399 V 33 l 2837,1 2836,1 -5,705 c -3,388 -2,816 2,952 l 7,248 h 301 c 165,0 302,1 303,3 4,4 5,293 4,1788 v 1036 l -3142,-1 -3143,-1 z m 5672,2284 c -2,-16 -4,-3 -4,27 0,30 2,43 4,28 2,-16 2,-40 0,-55 z m 287,61 c 3,-9 6,-31 6,-50 v -34 h -140 -140 v 50 50 h 134 c 113,0 135,-2 140,-16 z m 306,-34 v -50 h -145 -145 v 43 l 1,42 19,-24 c 24,-28 26,-20 4,14 l -16,25 h 141 141 z m -4912,33 c -181,-2 -475,-2 -655,0 -181,1 -33,2 327,2 360,0 508,-1 328,-2 z m 1640,0 c -86,-2 -230,-2 -320,0 -90,1 -19,3 157,3 176,0 249,-2 163,-3 z m 1840,0 c -181,-2 -475,-2 -655,0 -181,1 -33,2 327,2 360,0 508,-1 328,-2 z M 460,4715 c 0,-8 -7,-15 -15,-15 -8,0 -15,7 -15,15 0,8 7,15 15,15 8,0 15,-7 15,-15 z m 938,8 c -169,-2 -448,-2 -620,0 -172,1 -34,2 307,2 341,0 482,-1 313,-2 z m 342,-8 c 0,-8 -7,-15 -15,-15 -8,0 -15,7 -15,15 0,8 7,15 15,15 8,0 15,-7 15,-15 z m 850,0 c 0,-8 -7,-15 -15,-15 -8,0 -15,7 -15,15 0,8 7,15 15,15 8,0 15,-7 15,-15 z m 443,8 c -78,-2 -208,-2 -290,0 -81,1 -17,3 142,3 160,0 226,-2 148,-3 z m 167,-8 c 0,-8 -4,-15 -10,-15 -5,0 -10,7 -10,15 0,8 5,15 10,15 6,0 10,-7 10,-15 z m 730,0 c 0,-8 -4,-15 -10,-15 -5,0 -10,7 -10,15 0,8 5,15 10,15 6,0 10,-7 10,-15 z m 943,8 c -172,-2 -454,-2 -625,0 -172,1 -32,2 312,2 344,0 484,-1 313,-2 z m 337,-8 c 0,-8 -4,-15 -10,-15 -5,0 -10,7 -10,15 0,8 5,15 10,15 6,0 10,-7 10,-15 z m -3812,-12 c -169,-2 -448,-2 -620,0 -172,1 -34,2 307,2 341,0 482,-1 313,-2 z m 1635,0 c -78,-2 -208,-2 -290,0 -81,1 -17,3 142,3 160,0 226,-2 148,-3 z m 1840,0 c -172,-2 -454,-2 -625,0 -172,1 -32,2 312,2 344,0 484,-1 313,-2 z m -3465,-20 c -181,-2 -475,-2 -655,0 -181,1 -33,2 327,2 360,0 508,-1 328,-2 z m 1640,0 c -86,-2 -230,-2 -320,0 -90,1 -19,3 157,3 176,0 249,-2 163,-3 z m 1840,0 c -181,-2 -475,-2 -655,0 -181,1 -33,2 327,2 360,0 508,-1 328,-2 z m -3090,-20 202,-6 v -419 -418 h -165 -165 v -80 -80 h -164 c -91,0 -167,-3 -169,-7 -3,-5 -1,-31 3,-59 23,-145 136,-264 280,-295 l 50,-11 V 2899 2510 H 915 160 l 2,1073 3,1072 135,5 c 205,9 1268,11 1498,3 z m 3806,-4 c 12,-11 19,-1137 11,-1651 l -7,-508 h -22 c -37,0 -123,-47 -165,-90 -50,-52 -83,-119 -89,-181 l -5,-49 h 142 141 v -65 -65 h -106 c -90,0 -109,-3 -120,-18 -7,-9 -14,-25 -14,-34 0,-16 -15,-18 -168,-18 h -168 l -9,33 -10,32 -167,3 -168,2 v 260 260 h -770 -770 v 215 215 h -204 c -218,0 -216,1 -216,-51 0,-18 -9,-19 -170,-19 -157,0 -170,1 -170,18 0,10 -5,23 -12,30 -8,8 -12,125 -12,427 l -1,415 h -133 -132 l 2,418 3,417 240,5 c 344,7 3262,6 3269,-1 z m 416,-64 v -55 h -140 -140 v 55 55 h 140 140 z m 298,-2 3,-53 h -145 -146 v 48 c 0,27 3,52 7,56 4,3 68,5 142,4 l 136,-3 z m -591,-30 c -2,-16 -4,-3 -4,27 0,30 2,43 4,28 2,-16 2,-40 0,-55 z m 0,-110 c -2,-16 -4,-3 -4,27 0,30 2,43 4,28 2,-16 2,-40 0,-55 z m 293,27 v -50 h -140 -140 v 50 50 h 140 140 z m 300,0 v -50 h -145 -145 v 50 50 h 145 145 z m -300,-115 v -55 h -140 -140 v 55 55 h 140 140 z m 298,-2 3,-53 h -145 -146 v 48 c 0,27 3,52 7,56 4,3 68,5 142,4 l 136,-3 z m -591,-30 c -2,-16 -4,-3 -4,27 0,30 2,43 4,28 2,-16 2,-40 0,-55 z m -90,-1010 c -1,-181 -2,-33 -2,327 0,360 1,508 2,328 2,-181 2,-475 0,-655 z m 53,967 c 0,-5 -9,-10 -20,-10 -11,0 -20,5 -20,10 0,6 9,10 20,10 11,0 20,-4 20,-10 z m 17,-967 c -1,-181 -2,-33 -2,327 0,360 1,508 2,328 2,-181 2,-475 0,-655 z m 20,900 c -2,-16 -4,-3 -4,27 0,30 2,43 4,28 2,-16 2,-40 0,-55 z m 293,27 v -50 h -140 -140 v 50 50 h 140 140 z m 300,0 v -50 h -145 -145 v 50 50 h 145 145 z m -663,-912 c -1,-172 -2,-32 -2,312 0,344 1,484 2,313 2,-172 2,-454 0,-625 z m 33,312 c 0,-400 -3,-610 -10,-610 -7,0 -10,210 -10,610 0,400 3,610 10,610 7,0 10,-210 10,-610 z M 120,4225 c 0,-8 -7,-15 -15,-15 -8,0 -15,7 -15,15 0,8 7,15 15,15 8,0 15,-7 15,-15 z M 77,3253 c -1,-181 -2,-33 -2,327 0,360 1,508 2,328 2,-181 2,-475 0,-655 z m 73,333 c 0,-419 -4,-647 -10,-651 -7,-4 -10,213 -10,644 0,427 3,651 10,651 7,0 10,-221 10,-644 z M 97,3272 c -1,-169 -2,-28 -2,313 0,341 1,479 2,307 2,-172 2,-451 0,-620 z m 20,0 c -1,-169 -2,-28 -2,313 0,341 1,479 2,307 2,-172 2,-451 0,-620 z m 5903,863 v -55 h -140 -140 v 55 55 h 140 140 z m 298,-2 3,-53 h -145 -146 v 48 c 0,27 3,52 7,56 4,3 68,5 142,4 l 136,-3 z m -591,-30 c -2,-16 -4,-3 -4,27 0,30 2,43 4,28 2,-16 2,-40 0,-55 z m 0,-110 c -2,-16 -4,-3 -4,27 0,30 2,43 4,28 2,-16 2,-40 0,-55 z m 293,27 v -50 h -140 -140 v 50 50 h 140 140 z m 300,0 v -50 h -145 -145 v 50 50 h 145 145 z m -300,-115 v -55 h -140 -140 v 55 55 h 140 140 z m 298,-2 3,-53 h -145 -146 v 48 c 0,27 3,52 7,56 4,3 68,5 142,4 l 136,-3 z m -591,-30 c -2,-16 -4,-3 -4,27 0,30 2,43 4,28 2,-16 2,-40 0,-55 z m 0,-110 c -2,-16 -4,-3 -4,27 0,30 2,43 4,28 2,-16 2,-40 0,-55 z m 293,27 v -50 h -140 -140 v 50 50 h 140 140 z m 300,0 v -50 h -145 -145 v 50 50 h 145 145 z m -300,-115 v -55 h -140 -140 v 55 55 h 140 140 z m 298,-2 3,-53 h -145 -146 v 48 c 0,27 3,52 7,56 4,3 68,5 142,4 l 136,-3 z M 2277,3343 c -4,-207 -7,-479 -7,-605 v -228 h -35 c -31,0 -36,-3 -41,-30 l -6,-30 h -173 -172 l -6,30 c -6,27 -11,30 -42,30 h -35 v 390 391 l -30,6 -30,6 v 173 173 l 28,3 c 22,2 28,8 30,36 l 3,32 h 261 261 z m 63,127 v -250 h -25 -25 v 250 250 h 25 25 z m 3387,173 c -2,-16 -4,-3 -4,27 0,30 2,43 4,28 2,-16 2,-40 0,-55 z m -4042,-3 c 4,-7 -53,-10 -164,-10 -107,0 -171,4 -171,10 0,6 61,10 164,10 99,0 167,-4 171,-10 z m 5,-181 v -161 l -42,7 c -143,23 -273,144 -294,274 l -7,41 h 172 171 z m 4037,74 c -2,-16 -4,-3 -4,27 0,30 2,43 4,28 2,-16 2,-40 0,-55 z m 293,22 v -55 h -140 -140 v 55 55 h 140 140 z m 298,3 -3,-53 h -140 -140 l -3,53 -3,52 h 146 146 z m -591,-145 c -2,-16 -4,-3 -4,27 0,30 2,43 4,28 2,-16 2,-40 0,-55 z m 293,27 v -50 h -140 -140 v 50 50 h 140 140 z m 300,0 v -50 h -145 -145 v 50 50 h 145 145 z m -593,-137 c -2,-16 -4,-3 -4,27 0,30 2,43 4,28 2,-16 2,-40 0,-55 z m 293,22 v -55 h -140 -140 v 55 55 h 140 140 z m 298,3 -3,-53 h -140 -140 l -3,53 -3,52 h 146 146 z m -591,-145 c -2,-16 -4,-3 -4,27 0,30 2,43 4,28 2,-16 2,-40 0,-55 z m 293,27 v -50 h -140 -140 v 50 50 h 140 140 z m 300,0 v -50 h -145 -145 v 50 50 h 145 145 z m -593,-137 c -2,-16 -4,-3 -4,27 0,30 2,43 4,28 2,-16 2,-40 0,-55 z m 293,22 v -55 h -140 -140 v 55 55 h 140 140 z m 298,3 -3,-53 h -140 -140 l -3,53 -3,52 h 146 146 z m -591,-145 c -2,-16 -4,-3 -4,27 0,30 2,43 4,28 2,-16 2,-40 0,-55 z m 293,27 v -50 h -140 -140 v 50 50 h 140 140 z m 300,0 v -50 h -145 -145 v 50 50 h 145 145 z m -630,30 c 0,-5 -9,-10 -20,-10 -11,0 -20,5 -20,10 0,6 9,10 20,10 11,0 20,-4 20,-10 z M 120,2945 c 0,-8 -7,-15 -15,-15 -8,0 -15,7 -15,15 0,8 7,15 15,15 8,0 15,-7 15,-15 z m 2267,-282 c -1,-49 -3,-9 -3,87 0,96 2,136 3,88 2,-49 2,-127 0,-175 z m 328,215 c -10,-62 -47,-139 -90,-187 -38,-41 -133,-94 -192,-106 l -33,-7 v 171 171 h 161 161 z m 3012,-35 c -2,-16 -4,-3 -4,27 0,30 2,43 4,28 2,-16 2,-40 0,-55 z m 293,22 v -55 h -140 -140 v 55 55 h 140 140 z m 298,3 -3,-53 h -140 -140 l -3,53 -3,52 h 146 146 z M 3040,2560 v -340 h -340 -340 v 174 173 l 53,6 c 71,7 137,38 193,89 60,55 90,103 110,178 l 17,60 h 154 153 z m 2687,163 c -2,-16 -4,-3 -4,27 0,30 2,43 4,28 2,-16 2,-40 0,-55 z m 293,27 v -50 h -140 -140 v 50 50 h 140 140 z m 300,0 v -50 h -145 -145 v 50 50 h 145 145 z m -300,-125 v -64 l -87,40 c -49,23 -110,51 -138,64 l -50,23 138,1 137,1 z m 300,-65 c 0,-72 -4,-130 -9,-130 -5,0 -70,29 -145,64 l -136,65 v 65 66 h 145 145 z m -434,51 129,-58 3,-93 3,-92 -54,59 c -30,32 -89,97 -132,146 -43,48 -80,87 -82,87 -10,0 18,-33 136,-163 69,-76 127,-147 129,-158 3,-17 -3,-19 -75,-19 h -79 l -63,165 c -52,141 -64,185 -47,185 2,0 61,-26 132,-59 z m -92,-135 c 31,-82 56,-150 56,-152 0,-2 -29,-4 -65,-4 h -65 l 1,173 c 0,101 4,164 9,152 4,-11 33,-87 64,-169 z m -2566,77 -87,-4 -4,-117 -3,-117 -2,123 -2,122 93,-2 92,-2 z m 305,0 c -40,-2 -106,-2 -145,0 -40,1 -8,3 72,3 80,0 112,-2 73,-3 z m 165,0 c -15,-2 -42,-2 -60,0 -18,2 -6,4 27,4 33,0 48,-2 33,-4 z m 110,0 c -16,-2 -40,-2 -55,0 -16,2 -3,4 27,4 30,0 43,-2 28,-4 z m 120,0 c -16,-2 -40,-2 -55,0 -16,2 -3,4 27,4 30,0 43,-2 28,-4 z m 120,0 c -16,-2 -40,-2 -55,0 -16,2 -3,4 27,4 30,0 43,-2 28,-4 z m 120,0 c -16,-2 -40,-2 -55,0 -16,2 -3,4 27,4 30,0 43,-2 28,-4 z m 120,0 c -15,-2 -42,-2 -60,0 -18,2 -6,4 27,4 33,0 48,-2 33,-4 z m 120,0 c -15,-2 -42,-2 -60,0 -18,2 -6,4 27,4 33,0 48,-2 33,-4 z m 110,0 c -16,-2 -40,-2 -55,0 -16,2 -3,4 27,4 30,0 43,-2 28,-4 z m 130,0 c -15,-2 -42,-2 -60,0 -18,2 -6,4 27,4 33,0 48,-2 33,-4 z m -1265,-130 65,-118 -44,-3 -44,-3 v -55 c 0,-29 -2,-54 -5,-54 -2,0 -49,27 -105,61 l -100,60 v 115 114 h 84 85 z m 217,-3 v -120 h -69 -69 l -42,78 c -24,42 -54,96 -67,120 l -25,42 h 136 136 z m 120,0 v -120 h -55 -55 v 120 120 h 55 55 z m 120,0 v -120 h -55 -55 v 120 120 h 55 55 z m 110,0 v -120 h -50 -50 v 120 120 h 50 50 z m 120,0 v -120 h -55 -55 v 113 c 0,63 3,117 7,120 3,4 28,7 55,7 h 48 z m 120,0 v -120 h -55 -55 v 120 120 h 55 55 z m 120,0 v -120 h -55 -55 v 120 120 h 55 55 z m 120,0 v -120 h -55 -55 v 120 120 h 55 55 z m 120,0 v -120 h -55 -55 v 120 120 h 55 55 z m 118,6 c 3,-123 2,-126 -65,-126 h -43 v 121 120 l 53,-3 52,-3 z m 1512,51 135,-63 3,-183 c 1,-100 -1,-181 -6,-179 -5,1 -70,71 -145,153 l -137,150 v 93 c 0,50 3,92 8,92 4,-1 68,-29 142,-63 z m -470,-130 v -164 l -30,5 -30,4 v 149 c 0,141 1,149 19,149 11,0 23,5 26,10 3,6 8,10 11,10 2,0 4,-73 4,-163 z m -70,3 v -140 h -151 -151 l 7,37 c 23,125 147,239 263,242 l 32,1 z m -3475,-75 c 4,-85 5,-161 2,-169 -13,-34 -149,20 -217,85 -45,44 -95,140 -103,202 l -6,37 h 159 158 z m 22,-102 c -1,-49 -3,-9 -3,87 0,96 2,136 3,88 2,-49 2,-127 0,-175 z m -351,220 c 13,-60 27,-100 50,-139 50,-88 170,-164 262,-167 l 47,-2 3,168 2,168 33,-3 32,-3 3,-532 2,-533 h 198 c 205,0 222,3 222,42 0,17 13,18 169,18 h 169 l 6,-31 c 3,-17 6,-300 6,-629 V 153 l -715,-8 c -394,-4 -1042,-4 -1440,0 l -725,8 v 1127 c 0,620 3,1130 7,1133 3,4 379,7 834,7 h 829 z m 4339,-209 c 132,-147 153,-178 142,-208 -6,-15 -26,-16 -163,-14 l -157,3 -58,155 c -33,85 -62,163 -65,173 -5,15 3,17 75,17 47,0 81,4 81,10 0,22 20,3 145,-136 z m -3038,-76 c -1,-40 -3,-10 -3,67 0,77 1,110 3,73 2,-37 2,-100 0,-140 z m 2782,39 c 33,-90 61,-169 61,-175 0,-9 -36,-12 -130,-12 h -130 v 175 175 h 69 68 z m -2561,-45 3,-72 h -106 -105 v 135 135 l 103,-63 102,-62 z m 156,82 c 33,-59 60,-117 62,-130 2,-24 2,-24 -102,-24 h -104 v 65 c 0,36 2,65 5,65 2,0 45,-25 96,-55 50,-31 93,-54 96,-52 2,3 -41,31 -96,63 l -101,59 v 58 57 h 43 42 z m 86,-11 c 0,-135 4,-136 -79,20 l -53,97 h 66 66 z m 120,-3 v -120 h -55 -55 v 120 120 h 55 55 z m 120,0 v -120 h -55 -55 v 120 120 h 55 55 z m 110,0 v -120 h -50 -50 v 120 120 h 50 50 z m 120,-1 v -120 l -52,3 -53,3 -3,118 -3,117 h 56 55 z m 120,1 v -120 h -55 -55 v 120 120 h 55 55 z m 120,0 v -120 h -55 -55 v 120 120 h 55 55 z m 120,0 v -120 h -55 -55 v 120 120 h 55 55 z m 120,0 v -120 h -55 -55 v 120 120 h 55 55 z m 108,112 c 9,-6 12,-37 10,-118 l -3,-109 -52,-3 -53,-3 v 120 121 h 43 c 23,0 48,-4 55,-8 z m 910,-89 c -43,-2 -113,-2 -155,0 -43,1 -8,3 77,3 85,0 120,-2 78,-3 z M 3040,1957 v -173 l -61,-12 c -81,-15 -139,-44 -195,-98 -48,-48 -93,-132 -101,-192 l -5,-37 -159,3 -159,3 v 333 c 0,183 3,336 7,339 3,4 156,7 340,7 h 333 z m 648,76 c -16,-2 -40,-2 -55,0 -16,2 -3,4 27,4 30,0 43,-2 28,-4 z m 120,0 c -16,-2 -40,-2 -55,0 -16,2 -3,4 27,4 30,0 43,-2 28,-4 z m 120,0 c -16,-2 -40,-2 -55,0 -16,2 -3,4 27,4 30,0 43,-2 28,-4 z m 120,0 c -16,-2 -40,-2 -55,0 -16,2 -3,4 27,4 30,0 43,-2 28,-4 z m 120,0 c -16,-2 -40,-2 -55,0 -16,2 -3,4 27,4 30,0 43,-2 28,-4 z m 120,0 c -16,-2 -40,-2 -55,0 -16,2 -3,4 27,4 30,0 43,-2 28,-4 z m 110,0 c -16,-2 -40,-2 -55,0 -16,2 -3,4 27,4 30,0 43,-2 28,-4 z m 120,0 c -16,-2 -40,-2 -55,0 -16,2 -3,4 27,4 30,0 43,-2 28,-4 z m 130,0 c -15,-2 -42,-2 -60,0 -18,2 -6,4 27,4 33,0 48,-2 33,-4 z m -1511,-90 c -2,-16 -4,-3 -4,27 0,30 2,43 4,28 2,-16 2,-40 0,-55 z m 223,27 v -50 h -105 -105 v 50 50 h 105 105 z m 220,0 v -50 h -105 -105 v 50 50 h 105 105 z m 17,-27 c -2,-16 -4,-3 -4,27 0,30 2,43 4,28 2,-16 2,-40 0,-55 z m 1753,-143 v -170 h -27 c -44,0 -148,54 -192,100 -49,51 -89,129 -97,193 l -7,47 h 162 161 z m 17,-87 c -1,-49 -3,-9 -3,87 0,96 2,136 3,88 2,-49 2,-127 0,-175 z m -342,197 c 25,-148 159,-273 313,-293 l 42,-5 v 169 169 h 114 114 l 7,-257 c 8,-287 2,-1529 -8,-1539 -10,-10 -1265,-17 -1610,-9 l -318,7 3,72 3,71 169,3 169,2 -7,50 c -19,145 -136,273 -277,302 l -59,12 v 636 c 0,350 3,640 7,643 3,4 304,7 669,7 h 662 z M 77,953 c -1,-181 -2,-33 -2,327 0,360 1,508 2,328 2,-181 2,-475 0,-655 z m 43,967 c 0,-5 -7,-10 -15,-10 -8,0 -15,5 -15,10 0,6 7,10 15,10 8,0 15,-4 15,-10 z m 30,-640 c 0,-427 -3,-650 -10,-650 -7,0 -10,223 -10,650 0,427 3,650 10,650 7,0 10,-223 10,-650 z m 2987,553 c -2,-16 -4,-3 -4,27 0,30 2,43 4,28 2,-16 2,-40 0,-55 z m 223,27 v -50 h -105 -105 v 50 50 h 105 105 z m 220,0 v -50 h -105 -105 v 50 50 h 105 105 z m 17,-27 c -2,-16 -4,-3 -4,27 0,30 2,43 4,28 2,-16 2,-40 0,-55 z M 97,968 c -1,-172 -2,-32 -2,312 0,344 1,484 2,313 2,-172 2,-454 0,-625 z m 20,0 c -1,-172 -2,-32 -2,312 0,344 1,484 2,313 2,-172 2,-454 0,-625 z m 3020,755 c -2,-16 -4,-3 -4,27 0,30 2,43 4,28 2,-16 2,-40 0,-55 z m 223,27 v -50 h -105 -105 v 50 50 h 105 105 z m 220,0 v -50 h -105 -105 v 50 50 h 105 105 z m 17,-27 c -2,-16 -4,-3 -4,27 0,30 2,43 4,28 2,-16 2,-40 0,-55 z m -589,-125 -3,-173 -159,-3 -159,-3 6,51 c 16,133 120,250 256,286 25,7 49,13 54,13 4,1 6,-77 5,-171 z m 19,-90 c -1,-51 -3,-12 -3,87 0,99 2,141 3,93 2,-48 2,-129 0,-180 z M 5637,723 c -1,-181 -2,-33 -2,327 0,360 1,508 2,328 2,-181 2,-475 0,-655 z m 53,967 c 0,-5 -9,-10 -20,-10 -11,0 -20,5 -20,10 0,6 9,10 20,10 11,0 20,-4 20,-10 z m 17,-967 c -1,-181 -2,-33 -2,327 0,360 1,508 2,328 2,-181 2,-475 0,-655 z m -2570,890 c -2,-16 -4,-3 -4,27 0,30 2,43 4,28 2,-16 2,-40 0,-55 z m 223,27 v -50 h -105 -105 v 50 50 h 105 105 z m 220,0 v -50 h -105 -105 v 50 50 h 105 105 z m 17,-27 c -2,-16 -4,-3 -4,27 0,30 2,43 4,28 2,-16 2,-40 0,-55 z M 5657,732 c -1,-169 -2,-28 -2,313 0,341 1,479 2,307 2,-172 2,-451 0,-620 z m 33,319 c 0,-396 -4,-612 -10,-616 -7,-4 -10,202 -10,609 0,404 3,616 10,616 7,0 10,-210 10,-609 z m -2553,452 c -2,-16 -4,-3 -4,27 0,30 2,43 4,28 2,-16 2,-40 0,-55 z m 223,27 v -50 h -105 -105 v 50 50 h 105 105 z m 220,0 v -50 h -105 -105 v 50 50 h 105 105 z m 17,-27 c -2,-16 -4,-3 -4,27 0,30 2,43 4,28 2,-16 2,-40 0,-55 z m -460,-110 c -2,-16 -4,-3 -4,27 0,30 2,43 4,28 2,-16 2,-40 0,-55 z m 223,27 v -50 h -105 -105 v 50 50 h 105 105 z m 220,0 v -50 h -105 -105 v 50 50 h 105 105 z m 17,-27 c -2,-16 -4,-3 -4,27 0,30 2,43 4,28 2,-16 2,-40 0,-55 z m -460,-110 c -2,-16 -4,-3 -4,27 0,30 2,43 4,28 2,-16 2,-40 0,-55 z m 223,27 v -50 h -105 -105 v 50 50 h 105 105 z m 220,0 v -50 h -105 -105 v 50 50 h 105 105 z m 17,-27 c -2,-16 -4,-3 -4,27 0,30 2,43 4,28 2,-16 2,-40 0,-55 z m -460,-110 c -2,-16 -4,-3 -4,27 0,30 2,43 4,28 2,-16 2,-40 0,-55 z m 223,27 v -50 h -105 -105 v 50 50 h 105 105 z m 220,0 v -50 h -105 -105 v 50 50 h 105 105 z m 17,-27 c -2,-16 -4,-3 -4,27 0,30 2,43 4,28 2,-16 2,-40 0,-55 z m -237,-83 v -50 h -105 -105 v 50 50 h 105 105 z m 220,0 v -50 h -105 -105 v 50 50 h 105 105 z m -443,-27 c -2,-16 -4,-5 -4,22 0,28 2,40 4,28 2,-13 2,-35 0,-50 z m 460,0 c -2,-16 -4,-5 -4,22 0,28 2,40 4,28 2,-13 2,-35 0,-50 z m -239,-90 3,-53 h -105 -106 v 55 56 l 103,-3 102,-3 z m 222,2 v -55 h -105 -105 v 55 55 h 105 105 z m -443,-22 c -2,-16 -4,-5 -4,22 0,28 2,40 4,28 2,-13 2,-35 0,-50 z m 460,0 c -2,-16 -4,-5 -4,22 0,28 2,40 4,28 2,-13 2,-35 0,-50 z m -7,-173 V 660 l 30,-6 30,-6 V 480 313 l -30,-6 -30,-6 V 180 60 h -225 -225 v 420 420 h 225 225 z M 120,640 c 0,-5 -7,-10 -15,-10 -8,0 -15,5 -15,10 0,6 7,10 15,10 8,0 15,-4 15,-10 z m 3701,-31 c 93,-50 162,-143 184,-246 l 7,-33 h -171 -171 v 161 162 l 46,-7 c 25,-3 73,-20 105,-37 z M 5690,410 c 0,-5 -9,-10 -20,-10 -11,0 -20,5 -20,10 0,6 9,10 20,10 11,0 20,-4 20,-10 z M 3928,313 c -49,-2 -127,-2 -175,0 -49,1 -9,3 87,3 96,0 136,-2 88,-3 z M 1928,123 c -181,-2 -475,-2 -655,0 -181,1 -33,2 327,2 360,0 508,-1 328,-2 z m 3050,0 c -181,-2 -475,-2 -655,0 -181,1 -33,2 327,2 360,0 508,-1 328,-2 z M 980,84 c 0,-8 -7,-14 -15,-14 -15,0 -21,21 -9,33 10,9 24,-2 24,-19 z m 1240,16 c 0,-7 -212,-10 -615,-10 -403,0 -615,3 -615,10 0,7 212,10 615,10 403,0 615,-3 615,-10 z m 35,-10 c 0,-7 -6,-15 -12,-17 -8,-3 -13,4 -13,17 0,13 5,20 13,18 6,-3 12,-11 12,-18 z m 1765,0 c 0,-21 -15,-27 -25,-10 -7,12 2,30 16,30 5,0 9,-9 9,-20 z m 1240,10 c 0,-7 -212,-10 -615,-10 -403,0 -615,3 -615,10 0,7 212,10 615,10 403,0 615,-3 615,-10 z m 40,-10 c 0,-21 -15,-27 -25,-10 -7,12 2,30 16,30 5,0 9,-9 9,-20 z M 1918,73 c -169,-2 -448,-2 -620,0 -172,1 -34,2 307,2 341,0 482,-1 313,-2 z m 3040,0 c -169,-2 -448,-2 -620,0 -172,1 -34,2 307,2 341,0 482,-1 313,-2 z M 1938,53 c -179,-2 -476,-2 -660,0 -183,1 -36,2 327,2 363,0 513,-1 333,-2 z m 3040,0 c -179,-2 -476,-2 -660,0 -183,1 -36,2 327,2 363,0 513,-1 333,-2 z"
         id="path614" />
      <path
         d="m 5990,4718 c -12,-22 -12,-22 6,-6 10,10 15,20 12,24 -4,3 -12,-5 -18,-18 z"
         id="path616" />
      <path
         d="m 4616,2325 c 10,-8 23,-15 28,-15 6,0 1,7 -10,15 -10,8 -23,15 -28,15 -6,0 -1,-7 10,-15 z"
         id="path618" />
      <path
         d="m 4616,2265 c -11,-8 -16,-15 -10,-15 5,0 18,7 28,15 11,8 16,15 10,15 -5,0 -18,-7 -28,-15 z"
         id="path620" />
    </g>
  </g>
</svg>
